{
	"asset":{
		"generator":"Khronos glTF Blender I/O v4.0.44",
		"version":"2.0"
	},
	"scene":0,
	"scenes":[
		{
			"name":"Scene",
			"nodes":[
				27
			]
		}
	],
	"nodes":[
		{
			"name":"Thumb_Tip_L",
			"rotation":[
				0.001300009898841381,
				0.028294464573264122,
				0.009501175954937935,
				0.9995536208152771
			],
			"scale":[
				1,
				1,
				0.9999999403953552
			],
			"translation":[
				7.450580596923828e-09,
				6.51925802230835e-09,
				-0.030749449506402016
			]
		},
		{
			"children":[
				0
			],
			"name":"Thumb_Distal_L",
			"rotation":[
				0.005640632938593626,
				-0.028976868838071823,
				-0.011601326055824757,
				0.9994968771934509
			],
			"scale":[
				0.9999999403953552,
				1,
				0.9999999403953552
			],
			"translation":[
				1.30385160446167e-08,
				2.7939677238464355e-09,
				-0.042147889733314514
			]
		},
		{
			"children":[
				1
			],
			"name":"Thumb_Proximal_L",
			"rotation":[
				-0.0857066735625267,
				-0.020723232999444008,
				0.02713569439947605,
				0.9957351684570312
			],
			"translation":[
				2.561137080192566e-08,
				8.381903171539307e-09,
				-0.044916484504938126
			]
		},
		{
			"children":[
				2
			],
			"name":"Thumb_Metacarpal_L",
			"rotation":[
				0.09896569699048996,
				-0.3100542724132538,
				-0.3618450164794922,
				0.8735790252685547
			],
			"scale":[
				1,
				1,
				0.9999999403953552
			],
			"translation":[
				0.020045261830091476,
				-0.010000000707805157,
				-0.027139464393258095
			]
		},
		{
			"name":"Index_Tip_L",
			"rotation":[
				-0.1051386147737503,
				0.05383686348795891,
				-0.0025540960486978292,
				0.9929959774017334
			],
			"scale":[
				1,
				0.9999999403953552,
				1
			],
			"translation":[
				-6.6356733441352844e-09,
				2.9103830456733704e-09,
				-0.027122432366013527
			]
		},
		{
			"children":[
				4
			],
			"name":"Index_Distal_L",
			"rotation":[
				-0.006294820457696915,
				-0.011408057063817978,
				0.01405968889594078,
				0.9998162984848022
			],
			"scale":[
				0.9999999403953552,
				0.9999998807907104,
				0.9999998807907104
			],
			"translation":[
				1.0739313438534737e-08,
				2.852175384759903e-09,
				-0.03010685369372368
			]
		},
		{
			"children":[
				5
			],
			"name":"Index_Intermediate_L",
			"rotation":[
				-0.18597328662872314,
				0.01040282379835844,
				0.025514617562294006,
				0.9821683764457703
			],
			"scale":[
				0.9999999403953552,
				1,
				0.9999998807907104
			],
			"translation":[
				4.3655745685100555e-09,
				-7.275957614183426e-09,
				-0.03811631351709366
			]
		},
		{
			"children":[
				6
			],
			"name":"Index_Proximal_L",
			"rotation":[
				0.07441839575767517,
				-0.11123812198638916,
				-0.0020758386235684156,
				0.9910013675689697
			],
			"scale":[
				0.9999999403953552,
				1,
				0.9999999403953552
			],
			"translation":[
				-2.5160659333778312e-08,
				2.0344515405668062e-08,
				-0.08036758005619049
			]
		},
		{
			"children":[
				7
			],
			"name":"Index_Metacarpal_L",
			"rotation":[
				0.025219613686203957,
				-0.0002449448802508414,
				-1.2837212182148505e-07,
				0.9996819496154785
			],
			"scale":[
				1,
				1,
				0.9999999403953552
			],
			"translation":[
				0.022450437769293785,
				0.009999998845160007,
				-0.027139829471707344
			]
		},
		{
			"name":"Middle_Tip_L",
			"rotation":[
				-0.1568940281867981,
				-0.010808139108121395,
				-0.0025405469350516796,
				0.9875530004501343
			],
			"scale":[
				0.9999999403953552,
				1,
				1
			],
			"translation":[
				2.3015672923065722e-08,
				-1.01190380519256e-08,
				-0.028246993198990822
			]
		},
		{
			"children":[
				9
			],
			"name":"Middle_Distal_L",
			"rotation":[
				0.03076980821788311,
				0.011196328327059746,
				0.0012836999958381057,
				0.9994630217552185
			],
			"scale":[
				0.9999999403953552,
				1,
				1
			],
			"translation":[
				-1.6323610907420516e-08,
				4.4869921111967415e-09,
				-0.03174003213644028
			]
		},
		{
			"children":[
				10
			],
			"name":"Middle_Intermediate_L",
			"rotation":[
				-0.07791727781295776,
				-0.03916332498192787,
				-0.0059977383352816105,
				0.9961722493171692
			],
			"scale":[
				0.9999998807907104,
				1.0000001192092896,
				0.9999999403953552
			],
			"translation":[
				-9.604264050722122e-09,
				8.785718819126487e-09,
				-0.04500338062644005
			]
		},
		{
			"children":[
				11
			],
			"name":"Middle_Proximal_L",
			"rotation":[
				-0.05410470440983772,
				0.011977238580584526,
				-0.000444733101176098,
				0.9984633326530457
			],
			"scale":[
				1,
				1,
				0.9999999403953552
			],
			"translation":[
				4.198227543383837e-09,
				5.600895747193135e-09,
				-0.08046325296163559
			]
		},
		{
			"children":[
				12
			],
			"name":"Middle_Metacarpal_L",
			"rotation":[
				0.0499776229262352,
				0.03502237796783447,
				-2.1431262098303705e-07,
				0.9981361031532288
			],
			"scale":[
				1,
				1.0000001192092896,
				1
			],
			"translation":[
				0.0035728542134165764,
				0.009999998845160007,
				-0.027139827609062195
			]
		},
		{
			"name":"Ring_Tip_L",
			"rotation":[
				-0.13524393737316132,
				-0.026298314332962036,
				0.00849939789623022,
				0.990426778793335
			],
			"translation":[
				1.1496013030409813e-07,
				-2.561137080192566e-09,
				-0.03290107473731041
			]
		},
		{
			"children":[
				14
			],
			"name":"Ring_Distal_L",
			"rotation":[
				0.011438538320362568,
				0.001927316072396934,
				-0.013675469905138016,
				0.9998392462730408
			],
			"scale":[
				0.9999998807907104,
				1.0000001192092896,
				0.9999999403953552
			],
			"translation":[
				4.6798959374427795e-08,
				-1.7462298274040222e-10,
				-0.027040107175707817
			]
		},
		{
			"children":[
				15
			],
			"name":"Ring_Intermediate_L",
			"rotation":[
				-0.09900735318660736,
				-0.01472670491784811,
				-0.019192246720194817,
				0.994792640209198
			],
			"scale":[
				1,
				0.9999998807907104,
				1.0000001192092896
			],
			"translation":[
				-3.2712705433368683e-07,
				6.344635039567947e-09,
				-0.04013119637966156
			]
		},
		{
			"children":[
				16
			],
			"name":"Ring_Proximal_L",
			"rotation":[
				-0.00175961060449481,
				0.05091534182429314,
				0.004247795790433884,
				0.9986923933029175
			],
			"translation":[
				6.683330866508186e-08,
				-8.039933163672686e-10,
				-0.0739438384771347
			]
		},
		{
			"children":[
				17
			],
			"name":"Ring_Metacarpal_L",
			"rotation":[
				0.01808563992381096,
				0.07036377489566803,
				-5.043634132562147e-07,
				0.9973574280738831
			],
			"translation":[
				-0.013054745271801949,
				0.009999998845160007,
				-0.027139825746417046
			]
		},
		{
			"name":"Little_Tip_L",
			"rotation":[
				-0.035952258855104446,
				-0.01337192952632904,
				0.020332904532551765,
				0.9990571737289429
			],
			"scale":[
				0.9999998807907104,
				1,
				1
			],
			"translation":[
				9.080395102500916e-09,
				3.4924596548080444e-09,
				-0.019589979201555252
			]
		},
		{
			"children":[
				19
			],
			"name":"Little_Distal_L",
			"rotation":[
				-0.017415538430213928,
				0.012775477021932602,
				-0.014375309459865093,
				0.9996633529663086
			],
			"scale":[
				0.9999998807907104,
				1,
				1
			],
			"translation":[
				1.460575731471181e-07,
				-9.313225746154785e-09,
				-0.01730155758559704
			]
		},
		{
			"children":[
				20
			],
			"name":"Little_Intermediate_L",
			"rotation":[
				-0.10672969371080399,
				-0.04031924903392792,
				-0.03360160067677498,
				0.9929018616676331
			],
			"scale":[
				1,
				0.9999998807907104,
				1
			],
			"translation":[
				-1.1990778148174286e-08,
				6.868503987789154e-09,
				-0.033123549073934555
			]
		},
		{
			"children":[
				21
			],
			"name":"Little_Proximal_L",
			"rotation":[
				-0.0501767173409462,
				0.08933909982442856,
				0.0007296487456187606,
				0.9947363138198853
			],
			"scale":[
				0.9999999403953552,
				1,
				1
			],
			"translation":[
				-1.187072484754026e-08,
				1.5046680346131325e-08,
				-0.06571117043495178
			]
		},
		{
			"children":[
				22
			],
			"name":"Little_Metacarpal_L",
			"rotation":[
				0.0284477137029171,
				0.09093942493200302,
				-9.839956192081445e-07,
				0.9954500198364258
			],
			"translation":[
				-0.029954738914966583,
				-3.2121520998629194e-09,
				-0.02713964320719242
			]
		},
		{
			"children":[
				3,
				8,
				13,
				18,
				23
			],
			"name":"Wrist_L",
			"rotation":[
				6.4716432461864315e-06,
				6.422825208574068e-06,
				0.7071067690849304,
				0.7071067690849304
			],
			"scale":[
				1,
				0.9999999403953552,
				1
			],
			"translation":[
				-0.003672961378470063,
				0.0019813026301562786,
				0.08017557114362717
			]
		},
		{
			"name":"Palm_L",
			"rotation":[
				0.010388785041868687,
				0.06014638394117355,
				0.703457772731781,
				0.7081113457679749
			],
			"scale":[
				1.0000001192092896,
				1.000000238418579,
				1
			],
			"translation":[
				-0.017688000574707985,
				0.002741500036790967,
				0.013104000128805637
			]
		},
		{
			"mesh":0,
			"name":"LeftHandOpenXRMesh",
			"skin":0
		},
		{
			"children":[
				26,
				24,
				25
			],
			"name":"LeftHandOpenXR"
		}
	],
	"materials":[
		{
			"doubleSided":true,
			"name":"Hand",
			"pbrMetallicRoughness":{
				"baseColorTexture":{
					"index":0
				},
				"metallicFactor":0,
				"roughnessFactor":0.5
			}
		}
	],
	"meshes":[
		{
			"name":"LeftHandOpenXR",
			"primitives":[
				{
					"attributes":{
						"POSITION":0,
						"NORMAL":1,
						"TEXCOORD_0":2,
						"JOINTS_0":3,
						"WEIGHTS_0":4
					},
					"indices":5,
					"material":0
				}
			]
		}
	],
	"textures":[
		{
			"sampler":0,
			"source":0
		}
	],
	"images":[
		{
			"mimeType":"image/png",
			"name":"hand",
			"uri":"hand.png"
		}
	],
	"skins":[
		{
			"inverseBindMatrices":6,
			"joints":[
				24,
				3,
				2,
				1,
				0,
				8,
				7,
				6,
				5,
				4,
				13,
				12,
				11,
				10,
				9,
				18,
				17,
				16,
				15,
				14,
				23,
				22,
				21,
				20,
				19,
				25
			],
			"name":"LeftHandOpenXR"
		}
	],
	"accessors":[
		{
			"bufferView":0,
			"componentType":5126,
			"count":603,
			"max":[
				0.031477514654397964,
				0.09201174229383469,
				0.07876880466938019
			],
			"min":[
				-0.03361930325627327,
				-0.06638366729021072,
				-0.13242320716381073
			],
			"type":"VEC3"
		},
		{
			"bufferView":1,
			"componentType":5126,
			"count":603,
			"type":"VEC3"
		},
		{
			"bufferView":2,
			"componentType":5126,
			"count":603,
			"type":"VEC2"
		},
		{
			"bufferView":3,
			"componentType":5121,
			"count":603,
			"type":"VEC4"
		},
		{
			"bufferView":4,
			"componentType":5126,
			"count":603,
			"type":"VEC4"
		},
		{
			"bufferView":5,
			"componentType":5123,
			"count":2814,
			"type":"SCALAR"
		},
		{
			"bufferView":6,
			"componentType":5126,
			"count":26,
			"type":"MAT4"
		}
	],
	"bufferViews":[
		{
			"buffer":0,
			"byteLength":7236,
			"byteOffset":0,
			"target":34962
		},
		{
			"buffer":0,
			"byteLength":7236,
			"byteOffset":7236,
			"target":34962
		},
		{
			"buffer":0,
			"byteLength":4824,
			"byteOffset":14472,
			"target":34962
		},
		{
			"buffer":0,
			"byteLength":2412,
			"byteOffset":19296,
			"target":34962
		},
		{
			"buffer":0,
			"byteLength":9648,
			"byteOffset":21708,
			"target":34962
		},
		{
			"buffer":0,
			"byteLength":5628,
			"byteOffset":31356,
			"target":34963
		},
		{
			"buffer":0,
			"byteLength":1664,
			"byteOffset":36984
		}
	],
	"samplers":[
		{
			"magFilter":9729,
			"minFilter":9987
		}
	],
	"buffers":[
		{
			"byteLength":38648,
			"uri":"left_hand.bin"
		}
	]
}
