{
	"asset":{
		"generator":"Khronos glTF Blender I/O v4.0.44",
		"version":"2.0"
	},
	"scene":0,
	"scenes":[
		{
			"name":"Scene",
			"nodes":[
				27
			]
		}
	],
	"nodes":[
		{
			"name":"Thumb_Tip_L",
			"rotation":[
				0.0016022220952436328,
				0.028776908293366432,
				0.0002141814329661429,
				0.9995846152305603
			],
			"scale":[
				0.9999999403953552,
				0.9999999403953552,
				0.9999998211860657
			],
			"translation":[
				-3.682449460029602e-06,
				-1.0244548320770264e-08,
				-0.030250826850533485
			]
		},
		{
			"children":[
				0
			],
			"name":"Thumb_Distal_L",
			"rotation":[
				-0.028639132156968117,
				0.0022853913251310587,
				0.004362596198916435,
				0.9995777010917664
			],
			"translation":[
				-4.48198989033699e-06,
				1.4901161193847656e-08,
				-0.03684578835964203
			]
		},
		{
			"children":[
				1
			],
			"name":"Thumb_Proximal_L",
			"rotation":[
				-0.01042033638805151,
				0.00615695072337985,
				0.021297922357916832,
				0.9996998906135559
			],
			"scale":[
				1,
				1.0000001192092896,
				1.0000001192092896
			],
			"translation":[
				-4.60771843791008e-06,
				1.1641532182693481e-08,
				-0.0378723107278347
			]
		},
		{
			"children":[
				2
			],
			"name":"Thumb_Metacarpal_L",
			"rotation":[
				0.08476624637842178,
				-0.30628982186317444,
				-0.5608910918235779,
				0.7644621729850769
			],
			"translation":[
				0.032390836626291275,
				-0.0038978648371994495,
				-0.034472886472940445
			]
		},
		{
			"name":"Index_Tip_L",
			"rotation":[
				0.018928930163383484,
				-0.0072100344114005566,
				-0.00016212994523812085,
				0.9997948408126831
			],
			"scale":[
				1,
				1,
				0.9999999403953552
			],
			"translation":[
				-3.1910312827676535e-06,
				-3.259629011154175e-09,
				-0.026241974905133247
			]
		},
		{
			"children":[
				4
			],
			"name":"Index_Distal_L",
			"rotation":[
				-0.07141729444265366,
				0.0012685313122346997,
				0.004856880754232407,
				0.9974339008331299
			],
			"scale":[
				1,
				1.0000001192092896,
				1.0000001192092896
			],
			"translation":[
				-3.463122993707657e-06,
				1.3271346688270569e-08,
				-0.02849474549293518
			]
		},
		{
			"children":[
				5
			],
			"name":"Index_Intermediate_L",
			"rotation":[
				-0.16441699862480164,
				0.00023453807807527483,
				0.013570010662078857,
				0.9862975478172302
			],
			"scale":[
				0.9999998807907104,
				0.9999999403953552,
				0.9999998807907104
			],
			"translation":[
				-4.243571311235428e-06,
				8.381903171539307e-09,
				-0.03478846698999405
			]
		},
		{
			"children":[
				6
			],
			"name":"Index_Proximal_L",
			"rotation":[
				-0.06747491657733917,
				-0.08282715082168579,
				0.009312245063483715,
				0.9942334294319153
			],
			"scale":[
				0.9999998807907104,
				1.0000001192092896,
				1
			],
			"translation":[
				-9.613024303689599e-06,
				-1.6472768038511276e-08,
				-0.07901256531476974
			]
		},
		{
			"children":[
				7
			],
			"name":"Index_Metacarpal_L",
			"rotation":[
				0.1307487189769745,
				-0.0036980812437832355,
				-0.016322482377290726,
				0.9912742972373962
			],
			"scale":[
				1,
				0.9999998807907104,
				1
			],
			"translation":[
				0.025620728731155396,
				8.181429438991472e-05,
				-0.03537102788686752
			]
		},
		{
			"name":"Middle_Tip_L",
			"rotation":[
				0.030394064262509346,
				0.02299565076828003,
				0.00026055247872136533,
				0.9992734789848328
			],
			"scale":[
				1,
				0.9999999403953552,
				1.0000001192092896
			],
			"translation":[
				-3.3517317206133157e-06,
				-3.587047103792429e-09,
				-0.027499264106154442
			]
		},
		{
			"children":[
				9
			],
			"name":"Middle_Distal_L",
			"rotation":[
				-0.030189579352736473,
				0.009695454500615597,
				0.0021839134860783815,
				0.9994947910308838
			],
			"scale":[
				0.9999999403953552,
				1,
				0.9999999403953552
			],
			"translation":[
				-3.909175575245172e-06,
				1.4844772522337735e-08,
				-0.03214312344789505
			]
		},
		{
			"children":[
				10
			],
			"name":"Middle_Intermediate_L",
			"rotation":[
				-0.11991217732429504,
				-0.05177294462919235,
				-0.0070340437814593315,
				0.9914087057113647
			],
			"scale":[
				0.9999999403953552,
				0.9999999403953552,
				0.9999998807907104
			],
			"translation":[
				-4.931120201945305e-06,
				1.12713678390719e-08,
				-0.04053760692477226
			]
		},
		{
			"children":[
				11
			],
			"name":"Middle_Proximal_L",
			"rotation":[
				-0.09496674686670303,
				0.07095633447170258,
				-0.005609569605439901,
				0.9929325580596924
			],
			"scale":[
				1,
				1.0000001192092896,
				0.9999999403953552
			],
			"translation":[
				-9.576382581144571e-06,
				9.634163689042907e-09,
				-0.07875139266252518
			]
		},
		{
			"children":[
				12
			],
			"name":"Middle_Metacarpal_L",
			"rotation":[
				0.11384725570678711,
				-0.003743245732039213,
				-0.002183749573305249,
				0.9934888482093811
			],
			"scale":[
				1,
				0.9999998807907104,
				1
			],
			"translation":[
				-0.0001049922575475648,
				0.002562697743996978,
				-0.03527120500802994
			]
		},
		{
			"name":"Ring_Tip_L",
			"rotation":[
				0.014757376164197922,
				-0.005220937542617321,
				-0.0010696201352402568,
				0.9998769164085388
			],
			"scale":[
				1,
				1,
				0.9999998807907104
			],
			"translation":[
				-3.6065757740288973e-06,
				8.149072527885437e-09,
				-0.029612034559249878
			]
		},
		{
			"children":[
				14
			],
			"name":"Ring_Distal_L",
			"rotation":[
				-0.05401927977800369,
				0.015347671695053577,
				-0.0035188612528145313,
				0.9984157681465149
			],
			"scale":[
				0.9999999403953552,
				0.9999998807907104,
				0.9999999403953552
			],
			"translation":[
				-3.6449055187404156e-06,
				2.3283064365386963e-09,
				-0.029963349923491478
			]
		},
		{
			"children":[
				15
			],
			"name":"Ring_Intermediate_L",
			"rotation":[
				-0.12923601269721985,
				-0.01326633058488369,
				-0.01506725512444973,
				0.9914106726646423
			],
			"scale":[
				0.9999999403953552,
				1,
				1
			],
			"translation":[
				-4.223780706524849e-06,
				-6.170012056827545e-09,
				-0.034697286784648895
			]
		},
		{
			"children":[
				16
			],
			"name":"Ring_Proximal_L",
			"rotation":[
				-0.052130214869976044,
				0.10960956662893295,
				-0.008245139382779598,
				0.992572546005249
			],
			"scale":[
				1,
				1,
				0.9999999403953552
			],
			"translation":[
				-8.871022146195173e-06,
				9.66247171163559e-09,
				-0.0728679969906807
			]
		},
		{
			"children":[
				17
			],
			"name":"Ring_Metacarpal_L",
			"rotation":[
				0.0928976982831955,
				0.013268677517771721,
				0.023435326293110847,
				0.995311439037323
			],
			"translation":[
				-0.021188197657465935,
				0.0016298705013468862,
				-0.03464844077825546
			]
		},
		{
			"name":"Little_Tip_L",
			"rotation":[
				0.026380252093076706,
				0.004065593238919973,
				-0.0020038215443491936,
				0.9996417164802551
			],
			"scale":[
				0.9999999403953552,
				1,
				1.0000001192092896
			],
			"translation":[
				-2.6052584871649742e-06,
				9.313225746154785e-10,
				-0.021417751908302307
			]
		},
		{
			"children":[
				19
			],
			"name":"Little_Distal_L",
			"rotation":[
				-0.07773197442293167,
				0.0027480311691761017,
				-0.010243820026516914,
				0.9969179034233093
			],
			"translation":[
				-2.3198663257062435e-06,
				2.7939677238464355e-09,
				-0.019069502130150795
			]
		},
		{
			"children":[
				20
			],
			"name":"Little_Intermediate_L",
			"rotation":[
				-0.14191436767578125,
				-0.0033666077069938183,
				-0.02682092785835266,
				0.9895098209381104
			],
			"scale":[
				1.0000001192092896,
				1,
				1.0000001192092896
			],
			"translation":[
				-3.0496157705783844e-06,
				5.704350769519806e-09,
				-0.025159183889627457
			]
		},
		{
			"children":[
				21
			],
			"name":"Little_Proximal_L",
			"rotation":[
				-0.05344502255320549,
				0.06822773814201355,
				-0.012047220952808857,
				0.9961643815040588
			],
			"scale":[
				1.0000001192092896,
				1.0000001192092896,
				0.9999998807907104
			],
			"translation":[
				-8.058501407504082e-06,
				-6.28642737865448e-09,
				-0.06621143221855164
			]
		},
		{
			"children":[
				22
			],
			"name":"Little_Metacarpal_L",
			"rotation":[
				0.06016286835074425,
				0.12476547807455063,
				0.08706538379192352,
				0.9865260720252991
			],
			"scale":[
				1,
				0.9999998807907104,
				1
			],
			"translation":[
				-0.026388300582766533,
				-0.00048706354573369026,
				-0.0346670001745224
			]
		},
		{
			"children":[
				3,
				8,
				13,
				18,
				23
			],
			"name":"Wrist_L",
			"rotation":[
				-0.11403178423643112,
				0.003820891259238124,
				0.0011813356541097164,
				0.9934690594673157
			],
			"scale":[
				1.0000001192092896,
				1.0000001192092896,
				1.0000001192092896
			],
			"translation":[
				0.0003705961280502379,
				0.005525801796466112,
				0.07552629709243774
			]
		},
		{
			"children":[
				24
			],
			"name":"Palm_L",
			"rotation":[
				0.08397011458873749,
				0.07730953395366669,
				0.7017220854759216,
				0.7032485008239746
			],
			"scale":[
				1,
				1.0000001192092896,
				1
			],
			"translation":[
				-0.019335314631462097,
				0.0003301718388684094,
				0.00011852569878101349
			]
		},
		{
			"mesh":0,
			"name":"LeftHandMesh",
			"skin":0
		},
		{
			"children":[
				26,
				25
			],
			"name":"LeftHand",
			"translation":[
				0,
				-0.0003174860612489283,
				-0.00012873427476733923
			]
		}
	],
	"materials":[
		{
			"doubleSided":true,
			"name":"Hand",
			"pbrMetallicRoughness":{
				"baseColorTexture":{
					"index":0
				},
				"metallicFactor":0,
				"roughnessFactor":0.5
			}
		}
	],
	"meshes":[
		{
			"name":"LeftHandMesh",
			"primitives":[
				{
					"attributes":{
						"POSITION":0,
						"NORMAL":1,
						"TEXCOORD_0":2,
						"JOINTS_0":3,
						"WEIGHTS_0":4
					},
					"indices":5,
					"material":0
				}
			]
		}
	],
	"textures":[
		{
			"sampler":0,
			"source":0
		}
	],
	"images":[
		{
			"mimeType":"image/png",
			"name":"hand",
			"uri":"hand.png"
		}
	],
	"skins":[
		{
			"inverseBindMatrices":6,
			"joints":[
				25,
				24,
				3,
				2,
				1,
				0,
				8,
				7,
				6,
				5,
				4,
				13,
				12,
				11,
				10,
				9,
				18,
				17,
				16,
				15,
				14,
				23,
				22,
				21,
				20,
				19
			],
			"name":"LeftHand"
		}
	],
	"accessors":[
		{
			"bufferView":0,
			"componentType":5126,
			"count":1988,
			"max":[
				0.028963172808289528,
				0.09075886756181717,
				0.07352571189403534
			],
			"min":[
				-0.0387825146317482,
				-0.06861073523759842,
				-0.13872185349464417
			],
			"type":"VEC3"
		},
		{
			"bufferView":1,
			"componentType":5126,
			"count":1988,
			"type":"VEC3"
		},
		{
			"bufferView":2,
			"componentType":5126,
			"count":1988,
			"type":"VEC2"
		},
		{
			"bufferView":3,
			"componentType":5121,
			"count":1988,
			"type":"VEC4"
		},
		{
			"bufferView":4,
			"componentType":5126,
			"count":1988,
			"type":"VEC4"
		},
		{
			"bufferView":5,
			"componentType":5123,
			"count":10224,
			"type":"SCALAR"
		},
		{
			"bufferView":6,
			"componentType":5126,
			"count":26,
			"type":"MAT4"
		}
	],
	"bufferViews":[
		{
			"buffer":0,
			"byteLength":23856,
			"byteOffset":0,
			"target":34962
		},
		{
			"buffer":0,
			"byteLength":23856,
			"byteOffset":23856,
			"target":34962
		},
		{
			"buffer":0,
			"byteLength":15904,
			"byteOffset":47712,
			"target":34962
		},
		{
			"buffer":0,
			"byteLength":7952,
			"byteOffset":63616,
			"target":34962
		},
		{
			"buffer":0,
			"byteLength":31808,
			"byteOffset":71568,
			"target":34962
		},
		{
			"buffer":0,
			"byteLength":20448,
			"byteOffset":103376,
			"target":34963
		},
		{
			"buffer":0,
			"byteLength":1664,
			"byteOffset":123824
		}
	],
	"samplers":[
		{
			"magFilter":9729,
			"minFilter":9987
		}
	],
	"buffers":[
		{
			"byteLength":125488,
			"uri":"left_hand.bin"
		}
	]
}
