{
	"asset":{
		"generator":"Khronos glTF Blender I/O v4.0.44",
		"version":"2.0"
	},
	"scene":0,
	"scenes":[
		{
			"name":"Scene",
			"nodes":[
				27
			]
		}
	],
	"nodes":[
		{
			"name":"Thumb_Tip_R",
			"rotation":[
				0.004761379677802324,
				-0.028425192460417747,
				0.016708478331565857,
				0.9994449019432068
			],
			"scale":[
				0.9999999403953552,
				0.9999998807907104,
				0.9999998807907104
			],
			"translation":[
				-1.30385160446167e-08,
				-7.450580596923828e-09,
				-0.03025083802640438
			]
		},
		{
			"children":[
				0
			],
			"name":"Thumb_Distal_R",
			"rotation":[
				-0.028110533952713013,
				-0.005937850568443537,
				-0.0031005614437162876,
				0.9995824098587036
			],
			"scale":[
				0.9999999403953552,
				0.9999998211860657,
				1
			],
			"translation":[
				7.450580596923828e-09,
				1.7229467630386353e-08,
				-0.03684579208493233
			]
		},
		{
			"children":[
				1
			],
			"name":"Thumb_Proximal_R",
			"rotation":[
				-0.00950869731605053,
				-0.007491921540349722,
				-0.017332399263978004,
				0.9997765421867371
			],
			"translation":[
				6.984919309616089e-10,
				-6.984919309616089e-10,
				-0.0378723107278347
			]
		},
		{
			"children":[
				2
			],
			"name":"Thumb_Metacarpal_R",
			"rotation":[
				0.06355798244476318,
				0.31140121817588806,
				0.5069494247436523,
				0.8012440204620361
			],
			"scale":[
				1,
				1.0000001192092896,
				1
			],
			"translation":[
				-0.03239503875374794,
				-0.0038978569209575653,
				-0.034468960016965866
			]
		},
		{
			"name":"Index_Tip_R",
			"rotation":[
				0.018489692360162735,
				0.008271886967122555,
				0.0007750533986836672,
				0.9997945427894592
			],
			"scale":[
				0.9999998807907104,
				0.9999998807907104,
				0.9999999403953552
			],
			"translation":[
				1.0477378964424133e-09,
				-2.5029294192790985e-09,
				-0.026241987943649292
			]
		},
		{
			"children":[
				4
			],
			"name":"Index_Distal_R",
			"rotation":[
				-0.07128334790468216,
				-0.004562749061733484,
				-0.016008779406547546,
				0.9973171949386597
			],
			"scale":[
				1,
				0.9999999403953552,
				1
			],
			"translation":[
				-2.9685907065868378e-09,
				1.1175870895385742e-08,
				-0.02849474549293518
			]
		},
		{
			"children":[
				5
			],
			"name":"Index_Intermediate_R",
			"rotation":[
				-0.1644132137298584,
				-0.0013589662266895175,
				-0.041287314146757126,
				0.9855262041091919
			],
			"scale":[
				0.9999999403953552,
				1,
				0.9999999403953552
			],
			"translation":[
				-5.587935447692871e-09,
				-2.561137080192566e-09,
				-0.03478847071528435
			]
		},
		{
			"children":[
				6
			],
			"name":"Index_Proximal_R",
			"rotation":[
				-0.06643974035978317,
				0.08366042375564575,
				-0.0005108766490593553,
				0.9942768812179565
			],
			"scale":[
				1,
				1,
				0.9999999403953552
			],
			"translation":[
				1.1015799827873707e-08,
				1.0186340659856796e-08,
				-0.07901256531476974
			]
		},
		{
			"children":[
				7
			],
			"name":"Index_Metacarpal_R",
			"rotation":[
				0.1307571977376938,
				0.0034624915570020676,
				0.01809302531182766,
				0.991243302822113
			],
			"scale":[
				0.9999999403953552,
				1.0000001192092896,
				1.0000001192092896
			],
			"translation":[
				-0.02562503144145012,
				8.182579767890275e-05,
				-0.0353679284453392
			]
		},
		{
			"name":"Middle_Tip_R",
			"rotation":[
				0.030011771246790886,
				-0.023492638021707535,
				0.0029303072951734066,
				0.9992691874504089
			],
			"translation":[
				9.575160220265388e-09,
				-8.74933903105557e-10,
				-0.027499275282025337
			]
		},
		{
			"children":[
				9
			],
			"name":"Middle_Distal_R",
			"rotation":[
				-0.030282262712717056,
				-0.009403208270668983,
				0.0013988743303343654,
				0.9994961619377136
			],
			"scale":[
				0.9999999403953552,
				0.9999999403953552,
				0.9999998807907104
			],
			"translation":[
				8.469214662909508e-09,
				4.351022653281689e-09,
				-0.032143112272024155
			]
		},
		{
			"children":[
				10
			],
			"name":"Middle_Intermediate_R",
			"rotation":[
				-0.11988450586795807,
				0.05183546990156174,
				0.012568281963467598,
				0.9913540482521057
			],
			"scale":[
				1.0000001192092896,
				0.9999998807907104,
				0.9999999403953552
			],
			"translation":[
				-2.9103830456733704e-10,
				9.067662176676095e-10,
				-0.04053759202361107
			]
		},
		{
			"children":[
				11
			],
			"name":"Middle_Proximal_R",
			"rotation":[
				-0.09486646950244904,
				-0.07108917087316513,
				0.001998582622036338,
				0.9929465055465698
			],
			"scale":[
				1.0000001192092896,
				1,
				1
			],
			"translation":[
				-1.2951204553246498e-09,
				4.40877556684427e-09,
				-0.07875140756368637
			]
		},
		{
			"children":[
				12
			],
			"name":"Middle_Metacarpal_R",
			"rotation":[
				0.11385169625282288,
				0.0036152030806988478,
				0.003287132363766432,
				0.9934858083724976
			],
			"scale":[
				1,
				1,
				1.0000001192092896
			],
			"translation":[
				0.000100703451607842,
				0.002562708919867873,
				-0.03527122735977173
			]
		},
		{
			"name":"Ring_Tip_R",
			"rotation":[
				0.015069340355694294,
				0.004237376619130373,
				-0.003916268702596426,
				0.9998698234558105
			],
			"scale":[
				0.9999998807907104,
				1,
				1
			],
			"translation":[
				4.0745362639427185e-10,
				5.296897143125534e-09,
				-0.029612034559249878
			]
		},
		{
			"children":[
				14
			],
			"name":"Ring_Distal_R",
			"rotation":[
				-0.0547821931540966,
				-0.012348959222435951,
				0.01930549368262291,
				0.998235285282135
			],
			"scale":[
				1,
				0.9999998807907104,
				0.9999999403953552
			],
			"translation":[
				-6.490154191851616e-09,
				-6.05359673500061e-09,
				-0.029963357374072075
			]
		},
		{
			"children":[
				15
			],
			"name":"Ring_Intermediate_R",
			"rotation":[
				-0.12907694280147552,
				0.014716675505042076,
				0.042902424931526184,
				0.9905967712402344
			],
			"scale":[
				1,
				0.9999999403953552,
				1
			],
			"translation":[
				1.1641532182693481e-09,
				-8.265487849712372e-09,
				-0.03469730541110039
			]
		},
		{
			"children":[
				16
			],
			"name":"Ring_Proximal_R",
			"rotation":[
				-0.050901103764772415,
				-0.11018539220094681,
				0.002628639806061983,
				0.9926033616065979
			],
			"translation":[
				7.8580342233181e-09,
				2.3283064365386963e-10,
				-0.0728679895401001
			]
		},
		{
			"children":[
				17
			],
			"name":"Ring_Metacarpal_R",
			"rotation":[
				0.09293115139007568,
				-0.01301265973597765,
				-0.026189066469669342,
				0.9952430129051208
			],
			"scale":[
				1.0000001192092896,
				1,
				1
			],
			"translation":[
				0.021183988079428673,
				0.0016298810951411724,
				-0.03465103730559349
			]
		},
		{
			"name":"Little_Tip_R",
			"rotation":[
				0.025515273213386536,
				-0.007838149555027485,
				-0.00331428786739707,
				0.9996381998062134
			],
			"translation":[
				5.537003744393587e-09,
				-1.3969838619232178e-09,
				-0.021417755633592606
			]
		},
		{
			"children":[
				19
			],
			"name":"Little_Distal_R",
			"rotation":[
				-0.07745147496461868,
				0.0071344636380672455,
				0.03342776373028755,
				0.996410071849823
			],
			"scale":[
				1,
				1,
				1.0000001192092896
			],
			"translation":[
				-2.6775524020195007e-09,
				1.0244548320770264e-08,
				-0.019069509580731392
			]
		},
		{
			"children":[
				20
			],
			"name":"Little_Intermediate_R",
			"rotation":[
				-0.14147566258907318,
				0.011608286760747433,
				0.07210571318864822,
				0.9872440099716187
			],
			"scale":[
				0.9999998807907104,
				0.9999999403953552,
				0.9999998807907104
			],
			"translation":[
				8.847564458847046e-09,
				-8.614733815193176e-09,
				-0.025159193202853203
			]
		},
		{
			"children":[
				21
			],
			"name":"Little_Proximal_R",
			"rotation":[
				-0.05299990996718407,
				-0.06857265532016754,
				0.030822696164250374,
				0.9957603812217712
			],
			"translation":[
				1.0011717677116394e-08,
				-6.984919309616089e-09,
				-0.06621145457029343
			]
		},
		{
			"children":[
				22
			],
			"name":"Little_Metacarpal_R",
			"rotation":[
				0.06172765791416168,
				-0.12399374693632126,
				-0.09955985099077225,
				0.9853441715240479
			],
			"scale":[
				0.9999999403953552,
				1,
				1
			],
			"translation":[
				0.026384087279438972,
				-0.00048705170047469437,
				-0.03467022255063057
			]
		},
		{
			"children":[
				3,
				8,
				13,
				18,
				23
			],
			"name":"Wrist_R",
			"rotation":[
				-0.1140362098813057,
				-0.0036935219541192055,
				-0.0022781058214604855,
				0.9934670925140381
			],
			"scale":[
				0.9999999403953552,
				1.0000001192092896,
				1
			],
			"translation":[
				-0.00034907236113213,
				0.0055265906266868114,
				0.07552634179592133
			]
		},
		{
			"children":[
				24
			],
			"name":"Palm_R",
			"rotation":[
				0.08384101092815399,
				-0.07744599878787994,
				-0.7009405493736267,
				0.7040278315544128
			],
			"scale":[
				1,
				0.9999999403953552,
				1
			],
			"translation":[
				0.019335314631462097,
				0.0003301718388684094,
				0.00011852569878101349
			]
		},
		{
			"mesh":0,
			"name":"RightHandMesh",
			"skin":0
		},
		{
			"children":[
				26,
				25
			],
			"name":"RightHand",
			"translation":[
				0,
				-0.0003174860612489283,
				-0.00012873427476733923
			]
		}
	],
	"materials":[
		{
			"doubleSided":true,
			"name":"Hand",
			"pbrMetallicRoughness":{
				"baseColorTexture":{
					"index":0
				},
				"metallicFactor":0,
				"roughnessFactor":0.5
			}
		}
	],
	"meshes":[
		{
			"name":"LeftHandMesh",
			"primitives":[
				{
					"attributes":{
						"POSITION":0,
						"NORMAL":1,
						"TEXCOORD_0":2,
						"JOINTS_0":3,
						"WEIGHTS_0":4
					},
					"indices":5,
					"material":0
				}
			]
		}
	],
	"textures":[
		{
			"sampler":0,
			"source":0
		}
	],
	"images":[
		{
			"mimeType":"image/png",
			"name":"hand",
			"uri":"hand.png"
		}
	],
	"skins":[
		{
			"inverseBindMatrices":6,
			"joints":[
				25,
				24,
				3,
				2,
				1,
				0,
				8,
				7,
				6,
				5,
				4,
				13,
				12,
				11,
				10,
				9,
				18,
				17,
				16,
				15,
				14,
				23,
				22,
				21,
				20,
				19
			],
			"name":"RightHand"
		}
	],
	"accessors":[
		{
			"bufferView":0,
			"componentType":5126,
			"count":1988,
			"max":[
				0.0387825146317482,
				0.09075886756181717,
				0.07352571189403534
			],
			"min":[
				-0.028963172808289528,
				-0.06861073523759842,
				-0.13872185349464417
			],
			"type":"VEC3"
		},
		{
			"bufferView":1,
			"componentType":5126,
			"count":1988,
			"type":"VEC3"
		},
		{
			"bufferView":2,
			"componentType":5126,
			"count":1988,
			"type":"VEC2"
		},
		{
			"bufferView":3,
			"componentType":5121,
			"count":1988,
			"type":"VEC4"
		},
		{
			"bufferView":4,
			"componentType":5126,
			"count":1988,
			"type":"VEC4"
		},
		{
			"bufferView":5,
			"componentType":5123,
			"count":10224,
			"type":"SCALAR"
		},
		{
			"bufferView":6,
			"componentType":5126,
			"count":26,
			"type":"MAT4"
		}
	],
	"bufferViews":[
		{
			"buffer":0,
			"byteLength":23856,
			"byteOffset":0,
			"target":34962
		},
		{
			"buffer":0,
			"byteLength":23856,
			"byteOffset":23856,
			"target":34962
		},
		{
			"buffer":0,
			"byteLength":15904,
			"byteOffset":47712,
			"target":34962
		},
		{
			"buffer":0,
			"byteLength":7952,
			"byteOffset":63616,
			"target":34962
		},
		{
			"buffer":0,
			"byteLength":31808,
			"byteOffset":71568,
			"target":34962
		},
		{
			"buffer":0,
			"byteLength":20448,
			"byteOffset":103376,
			"target":34963
		},
		{
			"buffer":0,
			"byteLength":1664,
			"byteOffset":123824
		}
	],
	"samplers":[
		{
			"magFilter":9729,
			"minFilter":9987
		}
	],
	"buffers":[
		{
			"byteLength":125488,
			"uri":"right_hand.bin"
		}
	]
}
