{
	"asset":{
		"generator":"Khronos glTF Blender I/O v4.0.44",
		"version":"2.0"
	},
	"scene":0,
	"scenes":[
		{
			"name":"Scene",
			"nodes":[
				27
			]
		}
	],
	"nodes":[
		{
			"name":"Thumb_Tip_R",
			"rotation":[
				0.0014214377151802182,
				-0.0175295602530241,
				-0.009510555304586887,
				0.9998001456260681
			],
			"scale":[
				1,
				0.9999999403953552,
				1
			],
			"translation":[
				-4.284083843231201e-08,
				8.381903171539307e-09,
				-0.03074941225349903
			]
		},
		{
			"children":[
				0
			],
			"name":"Thumb_Distal_R",
			"rotation":[
				0.005640565883368254,
				0.02897687628865242,
				0.011601369827985764,
				0.9994968175888062
			],
			"translation":[
				-2.7939677238464355e-09,
				8.381903171539307e-09,
				-0.04214788228273392
			]
		},
		{
			"children":[
				1
			],
			"name":"Thumb_Proximal_R",
			"rotation":[
				-0.0857066884636879,
				0.020723244175314903,
				-0.0271356962621212,
				0.9957351684570312
			],
			"scale":[
				1,
				1,
				1.0000001192092896
			],
			"translation":[
				-2.6542693376541138e-08,
				-1.0244548320770264e-08,
				-0.044916484504938126
			]
		},
		{
			"children":[
				2
			],
			"name":"Thumb_Metacarpal_R",
			"rotation":[
				0.098663829267025,
				0.3093253970146179,
				0.3619273900985718,
				0.873837411403656
			],
			"scale":[
				0.9999999403953552,
				0.9999998211860657,
				0.9999999403953552
			],
			"translation":[
				-0.019999954849481583,
				-0.009999996982514858,
				-0.027172859758138657
			]
		},
		{
			"name":"Index_Tip_R",
			"rotation":[
				-0.10500174760818481,
				-0.054083146154880524,
				0.00039220042526721954,
				0.9930002093315125
			],
			"translation":[
				2.5029294192790985e-08,
				1.0273652151226997e-08,
				-0.027121705934405327
			]
		},
		{
			"children":[
				4
			],
			"name":"Index_Distal_R",
			"rotation":[
				-0.0063004507683217525,
				0.01140926219522953,
				-0.014137132093310356,
				0.9998151659965515
			],
			"translation":[
				-9.89530235528946e-09,
				3.6088749766349792e-09,
				-0.03010684810578823
			]
		},
		{
			"children":[
				5
			],
			"name":"Index_Intermediate_R",
			"rotation":[
				-0.18597319722175598,
				-0.010402779094874859,
				-0.025514572858810425,
				0.982168436050415
			],
			"scale":[
				1,
				1,
				0.9999999403953552
			],
			"translation":[
				-1.1292286217212677e-08,
				-1.3882527127861977e-08,
				-0.038116320967674255
			]
		},
		{
			"children":[
				6
			],
			"name":"Index_Proximal_R",
			"rotation":[
				0.07441830635070801,
				0.11123806983232498,
				0.0020758321043103933,
				0.9910013675689697
			],
			"scale":[
				0.9999999403953552,
				0.9999998807907104,
				1
			],
			"translation":[
				2.678017096968688e-08,
				6.824251386206015e-09,
				-0.0803675726056099
			]
		},
		{
			"children":[
				7
			],
			"name":"Index_Metacarpal_R",
			"rotation":[
				0.02521960809826851,
				-0.0005889564636163414,
				2.115828829118982e-05,
				0.999681830406189
			],
			"scale":[
				0.9999999403953552,
				0.9999998211860657,
				0.9999999403953552
			],
			"translation":[
				-0.022405128926038742,
				0.010000000707805157,
				-0.02717723697423935
			]
		},
		{
			"name":"Middle_Tip_R",
			"rotation":[
				-0.15370473265647888,
				0.011463030241429806,
				-0.0013266992755234241,
				0.9880494475364685
			],
			"translation":[
				9.516952559351921e-09,
				2.204615157097578e-09,
				-0.028247462585568428
			]
		},
		{
			"children":[
				9
			],
			"name":"Middle_Distal_R",
			"rotation":[
				0.030728820711374283,
				-0.011317471042275429,
				0.002731884131208062,
				0.999459981918335
			],
			"scale":[
				1,
				1.000000238418579,
				0.9999999403953552
			],
			"translation":[
				1.9821527530439198e-08,
				6.42921804683283e-09,
				-0.031740035861730576
			]
		},
		{
			"children":[
				10
			],
			"name":"Middle_Intermediate_R",
			"rotation":[
				-0.07791726291179657,
				0.03916338458657265,
				0.0059977322816848755,
				0.9961722493171692
			],
			"scale":[
				0.9999998807907104,
				1.0000001192092896,
				0.9999998807907104
			],
			"translation":[
				1.0601070243865252e-08,
				1.0039002518169582e-08,
				-0.04500338062644005
			]
		},
		{
			"children":[
				11
			],
			"name":"Middle_Proximal_R",
			"rotation":[
				-0.054104696959257126,
				-0.0119772395119071,
				0.000444722652900964,
				0.9984633326530457
			],
			"scale":[
				1,
				1,
				0.9999999403953552
			],
			"translation":[
				-4.241883289068937e-09,
				-7.20305592949444e-09,
				-0.08046325296163559
			]
		},
		{
			"children":[
				12
			],
			"name":"Middle_Metacarpal_R",
			"rotation":[
				0.04997760429978371,
				-0.035854969173669815,
				4.19037023675628e-05,
				0.9981065392494202
			],
			"scale":[
				1,
				0.9999999403953552,
				1
			],
			"translation":[
				-0.003527571214362979,
				0.010000001639127731,
				-0.027145741507411003
			]
		},
		{
			"name":"Ring_Tip_R",
			"rotation":[
				-0.13524389266967773,
				0.026298310607671738,
				-0.008499403484165668,
				0.9904268383979797
			],
			"scale":[
				0.9999999403953552,
				1,
				1
			],
			"translation":[
				-1.2284726835787296e-07,
				-5.005858838558197e-09,
				-0.03290107846260071
			]
		},
		{
			"children":[
				14
			],
			"name":"Ring_Distal_R",
			"rotation":[
				0.011438476853072643,
				-0.0019272207282483578,
				0.01367547083646059,
				0.9998392462730408
			],
			"scale":[
				0.9999999403953552,
				1.0000001192092896,
				0.9999999403953552
			],
			"translation":[
				-4.839967004954815e-08,
				-2.5029294192790985e-09,
				-0.02704009972512722
			]
		},
		{
			"children":[
				15
			],
			"name":"Ring_Intermediate_R",
			"rotation":[
				-0.09900721907615662,
				0.014726640656590462,
				0.019192254170775414,
				0.994792640209198
			],
			"scale":[
				1,
				0.9999999403953552,
				1
			],
			"translation":[
				3.246823325753212e-07,
				3.987224772572517e-09,
				-0.04013120383024216
			]
		},
		{
			"children":[
				16
			],
			"name":"Ring_Proximal_R",
			"rotation":[
				-0.0017597058322280645,
				-0.050915371626615524,
				-0.004247791133821011,
				0.9986923933029175
			],
			"scale":[
				0.9999999403953552,
				0.9999999403953552,
				0.9999998211860657
			],
			"translation":[
				-6.642585503868759e-08,
				-8.392817107960582e-09,
				-0.07394383102655411
			]
		},
		{
			"children":[
				17
			],
			"name":"Ring_Metacarpal_R",
			"rotation":[
				0.01808563992381096,
				-0.07119571417570114,
				1.558903204568196e-05,
				0.9972983598709106
			],
			"scale":[
				1,
				0.9999997615814209,
				1
			],
			"translation":[
				0.013100004754960537,
				0.010000000707805157,
				-0.027117999270558357
			]
		},
		{
			"name":"Little_Tip_R",
			"rotation":[
				-0.03595232963562012,
				0.013371922075748444,
				-0.02033291943371296,
				0.9990571737289429
			],
			"scale":[
				0.9999999403953552,
				0.9999999403953552,
				1
			],
			"translation":[
				-4.423782229423523e-09,
				4.0745362639427185e-10,
				-0.019589990377426147
			]
		},
		{
			"children":[
				19
			],
			"name":"Little_Distal_R",
			"rotation":[
				-0.017415566369891167,
				-0.012775648385286331,
				0.014375308528542519,
				0.9996633529663086
			],
			"scale":[
				1,
				1,
				1.0000001192092896
			],
			"translation":[
				-1.430671545676887e-07,
				-2.561137080192566e-09,
				-0.017301566898822784
			]
		},
		{
			"children":[
				20
			],
			"name":"Little_Intermediate_R",
			"rotation":[
				-0.106729656457901,
				0.04031943529844284,
				0.03360157459974289,
				0.9929018616676331
			],
			"scale":[
				0.9999998807907104,
				0.9999998807907104,
				0.9999999403953552
			],
			"translation":[
				3.8598955143243074e-09,
				3.259629011154175e-09,
				-0.03312354162335396
			]
		},
		{
			"children":[
				21
			],
			"name":"Little_Proximal_R",
			"rotation":[
				-0.0501767098903656,
				-0.08933911472558975,
				-0.0007296330877579749,
				0.9947363138198853
			],
			"translation":[
				6.297341315075755e-09,
				-7.8580342233181e-10,
				-0.06571117788553238
			]
		},
		{
			"children":[
				22
			],
			"name":"Little_Metacarpal_R",
			"rotation":[
				0.028447700664401054,
				-0.09176976978778839,
				2.471311563567724e-05,
				0.9953738451004028
			],
			"scale":[
				1,
				0.9999998211860657,
				0.9999999403953552
			],
			"translation":[
				0.029999975115060806,
				2.799749876380986e-10,
				-0.027089621871709824
			]
		},
		{
			"children":[
				3,
				8,
				13,
				18,
				23
			],
			"name":"Wrist_R",
			"rotation":[
				0.0005963167059235275,
				0.0005834223120473325,
				-0.7071065306663513,
				0.7071065306663513
			],
			"scale":[
				1,
				0.9999999403953552,
				1
			],
			"translation":[
				0.003672961378470063,
				0.0019813026301562786,
				0.08017557114362717
			]
		},
		{
			"name":"Palm_L",
			"rotation":[
				0.008213001303374767,
				-0.06232896447181702,
				-0.7034907341003418,
				0.7079184055328369
			],
			"scale":[
				0.9999999403953552,
				0.9999998807907104,
				0.9999999403953552
			],
			"translation":[
				0.017688000574707985,
				0.002741999924182892,
				0.013104000128805637
			]
		},
		{
			"mesh":0,
			"name":"RightHandOpenXRMesh",
			"skin":0
		},
		{
			"children":[
				26,
				24,
				25
			],
			"name":"RightHandOpenXR"
		}
	],
	"materials":[
		{
			"doubleSided":true,
			"name":"Hand",
			"pbrMetallicRoughness":{
				"baseColorTexture":{
					"index":0
				},
				"metallicFactor":0,
				"roughnessFactor":0.5
			}
		}
	],
	"meshes":[
		{
			"name":"RightHandOpenXR",
			"primitives":[
				{
					"attributes":{
						"POSITION":0,
						"NORMAL":1,
						"TEXCOORD_0":2,
						"JOINTS_0":3,
						"WEIGHTS_0":4
					},
					"indices":5,
					"material":0
				}
			]
		}
	],
	"textures":[
		{
			"sampler":0,
			"source":0
		}
	],
	"images":[
		{
			"mimeType":"image/png",
			"name":"hand",
			"uri":"hand.png"
		}
	],
	"skins":[
		{
			"inverseBindMatrices":6,
			"joints":[
				24,
				3,
				2,
				1,
				0,
				8,
				7,
				6,
				5,
				4,
				13,
				12,
				11,
				10,
				9,
				18,
				17,
				16,
				15,
				14,
				23,
				22,
				21,
				20,
				19,
				25
			],
			"name":"RightHandOpenXR"
		}
	],
	"accessors":[
		{
			"bufferView":0,
			"componentType":5126,
			"count":603,
			"max":[
				0.03362025320529938,
				0.09201174229383469,
				0.07880641520023346
			],
			"min":[
				-0.03147656098008156,
				-0.06638366729021072,
				-0.13242320716381073
			],
			"type":"VEC3"
		},
		{
			"bufferView":1,
			"componentType":5126,
			"count":603,
			"type":"VEC3"
		},
		{
			"bufferView":2,
			"componentType":5126,
			"count":603,
			"type":"VEC2"
		},
		{
			"bufferView":3,
			"componentType":5121,
			"count":603,
			"type":"VEC4"
		},
		{
			"bufferView":4,
			"componentType":5126,
			"count":603,
			"type":"VEC4"
		},
		{
			"bufferView":5,
			"componentType":5123,
			"count":2814,
			"type":"SCALAR"
		},
		{
			"bufferView":6,
			"componentType":5126,
			"count":26,
			"type":"MAT4"
		}
	],
	"bufferViews":[
		{
			"buffer":0,
			"byteLength":7236,
			"byteOffset":0,
			"target":34962
		},
		{
			"buffer":0,
			"byteLength":7236,
			"byteOffset":7236,
			"target":34962
		},
		{
			"buffer":0,
			"byteLength":4824,
			"byteOffset":14472,
			"target":34962
		},
		{
			"buffer":0,
			"byteLength":2412,
			"byteOffset":19296,
			"target":34962
		},
		{
			"buffer":0,
			"byteLength":9648,
			"byteOffset":21708,
			"target":34962
		},
		{
			"buffer":0,
			"byteLength":5628,
			"byteOffset":31356,
			"target":34963
		},
		{
			"buffer":0,
			"byteLength":1664,
			"byteOffset":36984
		}
	],
	"samplers":[
		{
			"magFilter":9729,
			"minFilter":9987
		}
	],
	"buffers":[
		{
			"byteLength":38648,
			"uri":"right_hand.bin"
		}
	]
}
